<svg xmlns="http://www.w3.org/2000/svg" viewBox="0 0 1066 1066"><defs><style>.cls-1{fill:#fff;}.cls-2{fill:none;}</style></defs><title>Asset 2</title><g id="Layer_2" data-name="Layer 2"><g id="Layer_2-2" data-name="Layer 2"><g id="Layer_3" data-name="Layer 3"><path class="cls-1" d="M1066,533q0,12.35-.58,24.57a529.75,529.75,0,0,1-69.33,239.5A535.4,535.4,0,0,1,824.4,979.35h0a533.22,533.22,0,0,1-597.9-10.26A534.42,534.42,0,0,1,41.94,740.57a524.72,524.72,0,0,1-24.14-70.5l0-.13a0,0,0,0,1,0,0c-.35-1.32-.7-2.64-1-4s-.7-2.74-1-4.12-.72-2.91-1.07-4.37l-.78-3.3c-.23-1-.46-2-.68-3-.57-2.52-1.13-5-1.66-7.57-.27-1.26-.53-2.53-.79-3.8-.29-1.44-.58-2.88-.86-4.32q-1.44-7.38-2.67-14.83c-.43-2.57-.83-5.14-1.22-7.72-.2-1.29-.38-2.59-.57-3.88s-.37-2.59-.54-3.88c-.35-2.59-.69-5.19-1-7.8-.16-1.3-.31-2.6-.46-3.91q-.63-5.49-1.13-11-.58-6.37-1-12.78c-.09-1.27-.17-2.53-.24-3.8-.07-1-.13-2.07-.18-3.11s-.12-2.22-.17-3.34c-.07-1.3-.13-2.61-.18-3.92l0-.56q-.09-2.11-.15-4.23c0-1.35-.09-2.71-.12-4.07,0-.24,0-.49,0-.73s0-.43,0-.64c0-1.75-.07-3.51-.09-5.26,0-.37,0-.75,0-1.12,0-1.87,0-3.73,0-5.59q0-5.32.1-10.62.06-3.37.17-6.73l.12-3.42C11,232.15,238.15,7.2,519.42.17Q526.25,0,533.11,0c2.07,0,4.13,0,6.2,0s4.11.06,6.16.11h.22c1.84,0,3.67.09,5.49.16l1.52,0,1.29,0q2.41.09,4.8.21c2.61.12,5.2.26,7.79.43,1.45.08,2.9.18,4.35.28q9.17.65,18.23,1.6,5.37.55,10.69,1.23,3.52.44,7,.92c2,.28,4,.56,5.92.86s3.94.6,5.9.92c1.49.24,3,.48,4.45.74s3.11.53,4.66.82c1.13.19,2.26.4,3.38.61q4,.74,7.92,1.54c1.39.27,2.78.56,4.16.86q2.6.54,5.17,1.11l3.93.88,1.74.4,3.31.79c1,.24,2.07.49,3.1.75,1.64.4,3.29.81,4.92,1.23,1.16.29,2.32.59,3.47.9s2.23.58,3.34.89l2,.55c1.1.29,2.21.6,3.31.92s2,.55,3,.85,1.75.49,2.62.76,1.69.49,2.53.75c1.33.38,2.65.78,4,1.2.54.16,1.07.32,1.61.5,1,.28,1.9.58,2.85.89,1.3.4,2.6.82,3.89,1.25s2.75.89,4.12,1.36,2.74.91,4.11,1.39c.9.3,1.79.61,2.69.93l1.81.64c1.28.44,2.57.9,3.85,1.37l2,.73c1.06.38,2.12.78,3.18,1.18s2.12.79,3.17,1.2c.65.24,1.31.49,2,.75l3,1.16c.92.35,1.83.72,2.74,1.08L733.45,39c1,.38,1.94.78,2.91,1.19q5.22,2.15,10.39,4.42c1.4.61,2.79,1.22,4.18,1.85l.8.36,3.84,1.75q6.73,3.09,13.36,6.38c1.62.79,3.25,1.61,4.86,2.43s2.91,1.48,4.36,2.24q2.63,1.35,5.23,2.75c1.74.92,3.47,1.86,5.19,2.8,2.4,1.31,4.8,2.65,7.18,4,1.11.62,2.22,1.26,3.33,1.9q20.83,12,40.43,25.84c1.27.88,2.52,1.78,3.78,2.68s2.75,2,4.11,3c.79.57,1.57,1.15,2.36,1.74,1,.73,2,1.46,3,2.2l.09.07c1.41,1,2.81,2.12,4.2,3.19.48.36,1,.73,1.45,1.11l3.3,2.57q2,1.53,3.9,3.09c.87.69,1.73,1.38,2.59,2.09l2.92,2.38c1.34,1.1,2.67,2.2,4,3.32q1.71,1.41,3.39,2.87c1,.88,2.08,1.77,3.11,2.67.75.64,1.49,1.28,2.22,1.93l1.38,1.21c1.05.92,2.1,1.85,3.14,2.79,1.25,1.11,2.5,2.24,3.73,3.37l2.62,2.41c.49.44,1,.89,1.45,1.34l2.62,2.46q1.8,1.69,3.59,3.42,1.5,1.42,3,2.88l1.33,1.3c.81.79,1.61,1.59,2.41,2.39.62.61,1.24,1.24,1.86,1.86l2,2.06c.79.8,1.57,1.6,2.35,2.41l1.28,1.32c.91.94,1.82,1.89,2.72,2.84q1.77,1.84,3.5,3.72,1.61,1.71,3.18,3.44c.15.15.29.31.44.47,1,1.09,2,2.19,3,3.29.42.45.82.9,1.23,1.36.69.78,1.39,1.56,2.08,2.35s1.36,1.54,2,2.32c1.15,1.31,2.29,2.62,3.42,3.95.6.7,1.2,1.4,1.79,2.11.88,1,1.74,2.06,2.61,3.1q3.36,4,6.65,8.14c1.09,1.36,2.18,2.74,3.26,4.12.12.14.23.29.34.43.67.85,1.33,1.69,2,2.55s1.35,1.74,2,2.62q2.39,3.12,4.72,6.28l2.12,2.88Q978.9,239.78,992.08,262c.71,1.19,1.41,2.39,2.1,3.59q1.85,3.17,3.64,6.36,1.41,2.5,2.79,5c.93,1.68,1.84,3.36,2.74,5.06s1.8,3.39,2.69,5.09,1.76,3.41,2.63,5.12,1.73,3.43,2.58,5.16q1.15,2.32,2.28,4.67l.39.82q1,2.13,2,4.28c.15.33.3.65.46,1,.76,1.63,1.51,3.26,2.25,4.91s1.58,3.51,2.36,5.28c.68,1.54,1.36,3.09,2,4.65.17.37.33.75.49,1.13q1,2.43,2,4.87t2.1,5.12c.06.16.13.32.19.49.69,1.7,1.36,3.41,2,5.13l0,.08c.54,1.38,1.07,2.76,1.59,4.15.34.88.68,1.76,1,2.64.4,1.06.79,2.12,1.18,3.18l.65,1.77c.51,1.41,1,2.84,1.52,4.26l.22.63c.61,1.73,1.2,3.46,1.79,5.19s1.24,3.69,1.84,5.54q.81,2.44,1.57,4.89c.24.72.46,1.45.68,2.17.36,1.14.71,2.28,1.06,3.43.18.58.36,1.17.53,1.76.45,1.49.89,3,1.33,4.48l.06.21q.71,2.44,1.4,4.91c.18.65.36,1.29.53,1.94.4,1.42.79,2.85,1.16,4.27a.32.32,0,0,1,0,.09c.49,1.83,1,3.66,1.43,5.5.07.26.14.52.2.78q.61,2.44,1.22,4.9c0,.22.11.44.16.66.42,1.75.83,3.49,1.24,5.24.44,1.92.88,3.84,1.3,5.77q1.28,5.77,2.41,11.6c.38,1.94.75,3.89,1.11,5.83s.71,3.9,1.05,5.86q1.51,8.81,2.75,17.7h0l0,.18A538.21,538.21,0,0,1,1066,533Z"/><path class="cls-2" d="M1066,533q0,12.35-.58,24.57a529.75,529.75,0,0,1-69.33,239.5A535.4,535.4,0,0,1,824.4,979.35h0a533.22,533.22,0,0,1-597.9-10.26A534.42,534.42,0,0,1,41.94,740.57a524.72,524.72,0,0,1-24.14-70.5l0-.13a0,0,0,0,1,0,0c-.35-1.32-.7-2.64-1-4s-.7-2.74-1-4.12-.72-2.91-1.07-4.37l-.78-3.3c-.23-1-.46-2-.68-3-.57-2.52-1.13-5-1.66-7.57-.27-1.26-.53-2.53-.79-3.8-.29-1.44-.58-2.88-.86-4.32q-1.44-7.38-2.67-14.83c-.43-2.57-.83-5.14-1.22-7.72-.2-1.29-.38-2.59-.57-3.88s-.37-2.59-.54-3.88c-.35-2.59-.69-5.19-1-7.8-.16-1.3-.31-2.6-.46-3.91q-.63-5.49-1.13-11-.58-6.37-1-12.78c-.09-1.27-.17-2.53-.24-3.8-.07-1-.13-2.07-.18-3.11s-.12-2.22-.17-3.34c-.07-1.3-.13-2.61-.18-3.92l0-.56q-.09-2.11-.15-4.23c0-1.35-.09-2.71-.12-4.07,0-.24,0-.49,0-.73s0-.43,0-.64c0-1.75-.07-3.51-.09-5.26,0-.37,0-.75,0-1.12,0-1.87,0-3.73,0-5.59q0-5.32.1-10.62.06-3.37.17-6.73l.12-3.42C11,232.15,238.15,7.2,519.42.17Q526.25,0,533.11,0c2.07,0,4.13,0,6.2,0s4.11.06,6.16.11h.22c1.84,0,3.67.09,5.49.16l1.52,0,1.29,0q2.41.09,4.8.21c2.61.12,5.2.26,7.79.43,1.45.08,2.9.18,4.35.28q9.17.65,18.23,1.6,5.37.55,10.69,1.23,3.52.44,7,.92c2,.28,4,.56,5.92.86s3.94.6,5.9.92c1.49.24,3,.48,4.45.74s3.11.53,4.66.82c1.13.19,2.26.4,3.38.61q4,.74,7.92,1.54c1.39.27,2.78.56,4.16.86q2.6.54,5.17,1.11l3.93.88,1.74.4,3.31.79c1,.24,2.07.49,3.1.75,1.64.4,3.29.81,4.92,1.23,1.16.29,2.32.59,3.47.9s2.23.58,3.34.89l2,.55c1.1.29,2.21.6,3.31.92s2,.55,3,.85,1.75.49,2.62.76,1.69.49,2.53.75c1.33.38,2.65.78,4,1.2.54.16,1.07.32,1.61.5,1,.28,1.9.58,2.85.89,1.3.4,2.6.82,3.89,1.25s2.75.89,4.12,1.36,2.74.91,4.11,1.39c.9.3,1.79.61,2.69.93l1.81.64c1.28.44,2.57.9,3.85,1.37l2,.73c1.06.38,2.12.78,3.18,1.18s2.12.79,3.17,1.2c.65.24,1.31.49,2,.75l3,1.16c.92.35,1.83.72,2.74,1.08L733.45,39c1,.38,1.94.78,2.91,1.19q5.22,2.15,10.39,4.42c1.4.61,2.79,1.22,4.18,1.85l.8.36,3.84,1.75q6.73,3.09,13.36,6.38c1.62.79,3.25,1.61,4.86,2.43s2.91,1.48,4.36,2.24q2.63,1.35,5.23,2.75c1.74.92,3.47,1.86,5.19,2.8,2.4,1.31,4.8,2.65,7.18,4,1.11.62,2.22,1.26,3.33,1.9q20.83,12,40.43,25.84c1.27.88,2.52,1.78,3.78,2.68s2.75,2,4.11,3c.79.57,1.57,1.15,2.36,1.74,1,.73,2,1.46,3,2.2l.09.07c1.41,1,2.81,2.12,4.2,3.19.48.36,1,.73,1.45,1.11l3.3,2.57q2,1.53,3.9,3.09c.87.69,1.73,1.38,2.59,2.09l2.92,2.38c1.34,1.1,2.67,2.2,4,3.32q1.71,1.41,3.39,2.87c1,.88,2.08,1.77,3.11,2.67.75.64,1.49,1.28,2.22,1.93l1.38,1.21c1.05.92,2.1,1.85,3.14,2.79,1.25,1.11,2.5,2.24,3.73,3.37l2.62,2.41c.49.44,1,.89,1.45,1.34l2.62,2.46q1.8,1.69,3.59,3.42,1.5,1.42,3,2.88l1.33,1.3c.81.79,1.61,1.59,2.41,2.39.62.61,1.24,1.24,1.86,1.86l2,2.06c.79.8,1.57,1.6,2.35,2.41l1.28,1.32c.91.94,1.82,1.89,2.72,2.84q1.77,1.84,3.5,3.72,1.61,1.71,3.18,3.44c.15.15.29.31.44.47,1,1.09,2,2.19,3,3.29.42.45.82.9,1.23,1.36.69.78,1.39,1.56,2.08,2.35s1.36,1.54,2,2.32c1.15,1.31,2.29,2.62,3.42,3.95.6.7,1.2,1.4,1.79,2.11.88,1,1.74,2.06,2.61,3.1q3.36,4,6.65,8.14c1.09,1.36,2.18,2.74,3.26,4.12.12.14.23.29.34.43.67.85,1.33,1.69,2,2.55s1.35,1.74,2,2.62q2.39,3.12,4.72,6.28l2.12,2.88Q978.9,239.78,992.08,262c.71,1.19,1.41,2.39,2.1,3.59q1.85,3.17,3.64,6.36,1.41,2.5,2.79,5c.93,1.68,1.84,3.36,2.74,5.06s1.8,3.39,2.69,5.09,1.76,3.41,2.63,5.12,1.73,3.43,2.58,5.16q1.15,2.32,2.28,4.67l.39.82q1,2.13,2,4.28c.15.33.3.65.46,1,.76,1.63,1.51,3.26,2.25,4.91s1.58,3.51,2.36,5.28c.68,1.54,1.36,3.09,2,4.65.17.37.33.75.49,1.13q1,2.43,2,4.87t2.1,5.12c.06.16.13.32.19.49.69,1.7,1.36,3.41,2,5.13l0,.08c.54,1.38,1.07,2.76,1.59,4.15.34.88.68,1.76,1,2.64.4,1.06.79,2.12,1.18,3.18l.65,1.77c.51,1.41,1,2.84,1.52,4.26l.22.63c.61,1.73,1.2,3.46,1.79,5.19s1.24,3.69,1.84,5.54q.81,2.44,1.57,4.89c.24.72.46,1.45.68,2.17.36,1.14.71,2.28,1.06,3.43.18.58.36,1.17.53,1.76.45,1.49.89,3,1.33,4.48l.06.21q.71,2.44,1.4,4.91c.18.65.36,1.29.53,1.94.4,1.42.79,2.85,1.16,4.27a.32.32,0,0,1,0,.09c.49,1.83,1,3.66,1.43,5.5.07.26.14.52.2.78q.61,2.44,1.22,4.9c0,.22.11.44.16.66.42,1.75.83,3.49,1.24,5.24.44,1.92.88,3.84,1.3,5.77q1.28,5.77,2.41,11.6c.38,1.94.75,3.89,1.11,5.83s.71,3.9,1.05,5.86q1.51,8.81,2.75,17.7h0l0,.18A538.21,538.21,0,0,1,1066,533Z"/><path d="M229.34,550.87l-114,313.35A532.65,532.65,0,0,1,41.94,740.57l171.62-199C220.3,533.77,232.88,541.14,229.34,550.87Z"/><path d="M996.09,797.07A535.4,535.4,0,0,1,824.4,979.35h0L707.26,476.52C703.15,458.83,726,448,737.14,462.33Z"/><path d="M1065.42,557.57a529.93,529.93,0,0,1-39.53,178.64L897.65,409.48c-4.22-10.76,9.49-19.46,17.42-11.05Z"/><path d="M703.78,826c0-79.1-37.75-149.21-70.11-194.15S619.29,515,619.29,515c28.76-50.33-25.17-89.88-25.17-80.89s-16.18,48.54-18,61.12S536.6,549.18,533,533s9-106.06,9-106.06C534.8,365.82,471.88,364,471.88,364c-16.18,136.62-82.69,156.4-115,188.75s-59.32,143.82-64.71,174.38S258,790.06,218.41,813.43s30.56,16.18,64.72,14.38,71.9-55.72,68.31-25.16-88.09,75.5-88.09,75.5c0,15.44-22,61.48-36.87,90.94a534.29,534.29,0,0,0,442.64,79.37c7.37-45.67,11.74-108.82,13.08-139.75,1.8-41.35-7.19-50.34-18-102.47S703.78,826,703.78,826ZM443.12,608.5a28.76,28.76,0,1,1,28.76-28.76A28.76,28.76,0,0,1,443.12,608.5Z"/><path d="M1058.17,441.51q-.51-2.94-1.05-5.86c-.36-1.94-.73-3.89-1.11-5.83q-1.14-5.82-2.41-11.6c-.42-1.93-.86-3.85-1.3-5.77-.41-1.75-.82-3.49-1.24-5.24,0-.22-.11-.44-.16-.66q-.6-2.46-1.22-4.9c-.06-.26-.13-.52-.2-.78-.47-1.84-.94-3.67-1.43-5.5a.32.32,0,0,0,0-.09c-.37-1.42-.76-2.85-1.16-4.27-.17-.65-.35-1.29-.53-1.94q-.69-2.46-1.4-4.91l-.06-.21c-.44-1.49-.88-3-1.33-4.48-.17-.59-.35-1.18-.53-1.76-.35-1.15-.7-2.29-1.06-3.43-.22-.72-.44-1.45-.68-2.17q-.76-2.44-1.57-4.89-.9-2.78-1.84-5.54c-.59-1.73-1.18-3.46-1.79-5.19l-.22-.63c-.5-1.42-1-2.85-1.52-4.26l-.65-1.77c-.39-1.06-.78-2.12-1.18-3.18-.31-.88-.65-1.76-1-2.64-.52-1.39-1-2.77-1.59-4.15l0-.08c-.67-1.72-1.34-3.43-2-5.13-.06-.17-.13-.33-.19-.49q-1-2.57-2.1-5.12t-2-4.87c-.16-.38-.32-.76-.49-1.13-.66-1.56-1.34-3.11-2-4.65-.78-1.77-1.56-3.53-2.36-5.28s-1.49-3.28-2.25-4.91c-.16-.33-.31-.65-.46-1q-1-2.14-2-4.28l-.39-.82q-1.12-2.34-2.28-4.67c-.85-1.73-1.71-3.44-2.58-5.16s-1.74-3.42-2.63-5.12-1.78-3.4-2.69-5.09-1.81-3.38-2.74-5.06-1.85-3.36-2.79-5q-1.8-3.19-3.64-6.36c-.69-1.2-1.39-2.4-2.1-3.59Q978.93,239.8,963.72,219l-2.12-2.88q-2.34-3.17-4.72-6.28c-.67-.88-1.34-1.75-2-2.62s-1.31-1.7-2-2.55c-.11-.14-.22-.29-.34-.43-1.08-1.38-2.17-2.76-3.26-4.12Q946,196,942.63,192c-.87-1-1.73-2.07-2.61-3.1-.59-.71-1.19-1.41-1.79-2.11-1.13-1.33-2.27-2.64-3.42-3.95-.67-.78-1.34-1.55-2-2.32s-1.39-1.57-2.08-2.35c-.41-.46-.81-.91-1.23-1.36-1-1.1-2-2.2-3-3.29-.15-.16-.29-.32-.44-.47q-1.57-1.72-3.18-3.44-1.73-1.87-3.5-3.72c-.9-1-1.81-1.9-2.72-2.84l-1.28-1.32c-.78-.81-1.56-1.61-2.35-2.41l-2-2.06c-.62-.62-1.24-1.25-1.86-1.86-.8-.8-1.6-1.6-2.41-2.39l-1.33-1.3q-1.47-1.45-3-2.88-1.78-1.73-3.59-3.42l-2.62-2.46c-.48-.45-1-.9-1.45-1.34l-2.62-2.41c-1.23-1.13-2.48-2.26-3.73-3.37-1-.94-2.09-1.87-3.14-2.79l-1.38-1.21c-.73-.65-1.47-1.29-2.22-1.93-1-.9-2.07-1.79-3.11-2.67s-2.25-1.93-3.39-2.87c-1.33-1.12-2.66-2.22-4-3.32l-2.92-2.38c-.86-.71-1.72-1.4-2.59-2.09q-1.93-1.56-3.9-3.09l-3.3-2.57c-.48-.38-1-.75-1.45-1.11-1.39-1.07-2.79-2.14-4.2-3.19l-.09-.07c-1-.74-2-1.47-3-2.2-.79-.59-1.57-1.17-2.36-1.74q-2-1.51-4.11-3c-1.26-.9-2.51-1.8-3.78-2.68q-19.57-13.8-40.43-25.84c-1.11-.64-2.22-1.28-3.33-1.9-2.38-1.36-4.78-2.7-7.18-4-1.72-.94-3.45-1.88-5.19-2.8s-3.48-1.85-5.23-2.75c-1.45-.76-2.9-1.5-4.36-2.24s-3.24-1.64-4.86-2.43q-6.63-3.28-13.36-6.38l-3.84-1.75-.8-.36c-1.39-.63-2.78-1.24-4.18-1.85q-5.16-2.28-10.39-4.42c-1-.41-1.94-.81-2.91-1.19l-2.83-1.15c-.91-.36-1.82-.73-2.74-1.08l-3-1.16c-.65-.26-1.31-.51-2-.75-1.05-.41-2.11-.81-3.17-1.2s-2.12-.8-3.18-1.18l-2-.73c-1.28-.47-2.57-.93-3.85-1.37l-1.81-.64c-.9-.32-1.79-.63-2.69-.93-1.37-.48-2.74-.94-4.11-1.39s-2.74-.92-4.12-1.36-2.59-.85-3.89-1.25c-1-.31-1.9-.61-2.85-.89-.54-.18-1.07-.34-1.61-.5-1.32-.42-2.64-.82-4-1.2-.84-.26-1.68-.51-2.53-.75s-1.74-.52-2.62-.76-2-.58-3-.85-2.21-.63-3.31-.92l-2-.55c-1.11-.31-2.23-.6-3.34-.89s-2.31-.61-3.47-.9c-1.63-.42-3.28-.83-4.92-1.23-1-.26-2.06-.51-3.1-.75l-3.31-.79-1.74-.4-3.93-.88q-2.58-.57-5.17-1.11c-1.38-.3-2.77-.59-4.16-.86q-3.95-.81-7.92-1.54c-1.12-.21-2.25-.42-3.38-.61-1.55-.29-3.1-.56-4.66-.82s-3-.5-4.45-.74q-2.94-.48-5.9-.92c-2-.3-3.94-.58-5.92-.86q-3.51-.48-7-.92-5.33-.68-10.69-1.23-9.06-1-18.23-1.6c-1.45-.1-2.9-.2-4.35-.28C564,.88,561.4.74,558.79.62Q556.41.5,554,.41l-1.29,0-1.52,0c-1.82-.07-3.65-.12-5.49-.16h-.22c-2.05,0-4.11-.09-6.16-.11s-4.13,0-6.2,0q-6.87,0-13.69.17C239.62,7.32,11.11,232.86.39,512.52l-.12,3.42Q.17,519.3.1,522.67,0,528,0,533.29c0,1.86,0,3.72,0,5.59,0,.37,0,.75,0,1.12,0,1.75.05,3.51.09,5.26,0,.21,0,.43,0,.64s0,.49,0,.73c0,1.36.07,2.72.12,4.07s.09,2.82.15,4.23l0,.56c.05,1.31.11,2.62.18,3.92,0,1.12.1,2.23.17,3.34s.11,2.08.18,3.11c.07,1.27.15,2.53.24,3.8q.44,6.4,1,12.78.51,5.53,1.13,11c.15,1.31.3,2.61.46,3.91.31,2.61.65,5.2,1,7.8.17,1.29.35,2.59.54,3.88s.37,2.59.57,3.88c.39,2.58.79,5.15,1.22,7.72q1.23,7.46,2.67,14.83c.28,1.44.57,2.88.86,4.32.26,1.27.52,2.54.79,3.8.53,2.53,1.09,5,1.66,7.57.22,1,.45,2,.68,3l.78,3.3c.35,1.46.7,2.92,1.07,4.37s.68,2.75,1,4.12.68,2.65,1,4a0,0,0,0,0,0,0s.08.06.12,0L270.54,364h0c.12-.17,45-71.8,62.92,9,0,0,7.19,32.36-18,80.89-14.48,27.92,35.95-30.56,55.72-59.32,16.17-23.51,46.92-82.94,66.87-112.9a19.21,19.21,0,0,1,23.07-7.24L777,399.07a20.12,20.12,0,0,0,5.6,1.36c7.54.7,22.22-.45-19.49-29.22-52-35.85-28.89-55.62-28.76-55.72h0L835,254.37c.06,0,32.4-17.92,80.9,55.72,38.19,58,114.23,123.79,144.9,149.19,0,.05.12,0,.12-.06h0Q1059.69,450.31,1058.17,441.51ZM200.44,335.26A30.56,30.56,0,1,1,231,304.7,30.56,30.56,0,0,1,200.44,335.26ZM346.05,207.63c-3.6-12.59-21.58-28.76-21.58-28.76,5.4-3.6,21.58-30.56,21.58-30.56,3.59,12.58,23.36,30.56,23.36,30.56C360.43,182.46,346.05,207.63,346.05,207.63Zm223.8,55.72a110.29,110.29,0,0,1-85-39.85A87.19,87.19,0,1,0,518.49,54.88a110.56,110.56,0,1,1,51.36,208.47Zm169.88-43.14a18,18,0,1,1,18-18A18,18,0,0,1,739.73,220.21Z"/></g></g></g></svg>