<svg id="Layer_1" data-name="Layer 1" xmlns="http://www.w3.org/2000/svg" viewBox="0 0 24 24"><defs><style>.cls-1{fill:#fff;}</style></defs><title>Artboard 2</title><path class="cls-1" d="M5.49,2H22V0H5A3,3,0,0,0,2,3V21a3,3,0,0,0,3,3H22V4H5.5A1,1,0,1,1,5.49,2ZM6,6H20V22H6Zm5.21,11.36c.47-1.46,1.34-3.22,1.5-3.67.22-.65-.18-.93-1.43.17L11,13.34c1.43-1.56,4.38-1.91,3.38.5-.63,1.51-1.08,2.52-1.33,3.31-.38,1.14.57.68,1.49-.17a4.7,4.7,0,0,1,.29.5C12.78,19.44,10.5,19.61,11.21,17.36Zm3.9-6.71a1.06,1.06,0,0,1-1.45,0,.94.94,0,0,1,.14-1.37,1.06,1.06,0,0,1,1.44,0A.94.94,0,0,1,15.11,10.65Z"/></svg>